HIERARCHY
ROOT Hips
{
 OFFSET 0.000000 0.000000 0.000000
 CHANNELS 6 Xposition Yposition Zposition Yrotation Xrotation Zrotation
 JOINT Chest
 {
  OFFSET 0.000000 10.383400 0.001500
  CHANNELS 3 Yrotation Xrotation Zrotation
  JOINT Chest2
  {
   OFFSET 0.000000 10.418200 -0.003100
   CHANNELS 3 Yrotation Xrotation Zrotation
   JOINT Chest3
   {
    OFFSET 0.000000 10.375100 0.000000
    CHANNELS 3 Yrotation Xrotation Zrotation
    JOINT Chest4
    {
     OFFSET 0.000000 10.364600 0.000000
     CHANNELS 3 Yrotation Xrotation Zrotation
     JOINT Neck
     {
      OFFSET 0.000000 15.642200 0.000000
      CHANNELS 3 Yrotation Xrotation Zrotation
      JOINT Head
      {
       OFFSET 0.000000 9.697300 -0.006500
       CHANNELS 3 Yrotation Xrotation Zrotation
       End Site
       {
        OFFSET 0.000000 18.492200 -0.003400
       }
      }
     }
     JOINT RightCollar
     {
      OFFSET -3.166800 10.349300 0.000000
      CHANNELS 3 Yrotation Xrotation Zrotation
      JOINT RightShoulder
      {
       OFFSET -14.729700 0.000000 0.000000
       CHANNELS 3 Yrotation Xrotation Zrotation
       JOINT RightElbow
       {
        OFFSET 0.000000 -32.224300 0.000000
        CHANNELS 3 Yrotation Xrotation Zrotation
        JOINT RightWrist
        {
         OFFSET 0.000000 -26.084100 0.000000
         CHANNELS 3 Yrotation Xrotation Zrotation
         End Site
         {
          OFFSET 0.000000 -19.319400 0.000000
         }
        }
       }
      }
     }
     JOINT LeftCollar
     {
      OFFSET 3.166800 10.349300 0.000000
      CHANNELS 3 Yrotation Xrotation Zrotation
      JOINT LeftShoulder
      {
       OFFSET 14.729700 0.000000 0.000000
       CHANNELS 3 Yrotation Xrotation Zrotation
       JOINT LeftElbow
       {
        OFFSET 0.000000 -32.224300 0.000000
        CHANNELS 3 Yrotation Xrotation Zrotation
        JOINT LeftWrist
        {
         OFFSET 0.000000 -26.084100 0.000000
         CHANNELS 3 Yrotation Xrotation Zrotation
         End Site
         {
          OFFSET 0.000000 -19.319400 0.000000
         }
        }
       }
      }
     }
    }
   }
  }
 }
 JOINT RightHip
 {
  OFFSET -8.428900 -0.007500 -0.000800
  CHANNELS 3 Yrotation Xrotation Zrotation
  JOINT RightKnee
  {
   OFFSET 0.000000 -43.834600 0.000700
   CHANNELS 3 Yrotation Xrotation Zrotation
   JOINT RightAnkle
   {
    OFFSET 0.000000 -42.757000 0.001200
    CHANNELS 3 Yrotation Xrotation Zrotation
    JOINT RightToe
    {
     OFFSET 0.000000 -6.946900 15.649300
     CHANNELS 3 Yrotation Xrotation Zrotation
     End Site
     {
      OFFSET 0.000000 -1.580800 6.825800
     }
    }
   }
  }
 }
 JOINT LeftHip
 {
  OFFSET 8.428900 -0.007500 -0.000800
  CHANNELS 3 Yrotation Xrotation Zrotation
  JOINT LeftKnee
  {
   OFFSET 0.000000 -43.834600 0.000700
   CHANNELS 3 Yrotation Xrotation Zrotation
   JOINT LeftAnkle
   {
    OFFSET 0.000000 -42.757000 0.001200
    CHANNELS 3 Yrotation Xrotation Zrotation
    JOINT LeftToe
    {
     OFFSET 0.000000 -6.946900 15.649300
     CHANNELS 3 Yrotation Xrotation Zrotation
     End Site
     {
      OFFSET 0.000000 -1.580800 6.825800
     }
    }
   }
  }
 }
}
MOTION
Frames: 9
Frame Time: 0.008333
-0.275679 125.909967 -6.278773 173.770803 -11.926928 0.161646 -0.987512 18.151439 3.635379 -0.191010 2.107025 0.426505 -0.277994 3.440478 0.703069 -0.943789 15.822794 3.156005 -3.663296 9.913140 1.949220 -4.430523 -15.219726 2.977774 6.872616 -3.253040 -1.308751 21.927147 -24.577573 -15.291092 65.703881 -57.628232 -39.273896 12.374803 2.121182 -15.185241 -5.647528 -0.287348 -0.577921 5.074093 -11.080429 4.410722 12.187532 -74.544047 -28.217082 -8.247496 1.890185 14.911882 11.154694 -62.525539 0.678286 -107.365104 81.627692 -106.548522 0.261080 -2.917942 10.918082 0.007010 -0.014370 0.003111 4.440259 -59.997361 -7.276252 106.465227 80.680849 110.236139 8.328387 -7.779577 -5.611484 0.008015 -0.001777 0.003558
-0.273376 125.903380 -6.286783 173.765598 -11.846467 0.160017 -1.058110 18.213511 3.615733 -0.178836 2.087400 0.427301 -0.287369 3.452225 0.703400 -0.985312 15.846357 3.146558 -3.456420 9.802644 1.843179 -4.177576 -15.336778 2.811692 6.738454 -3.198117 -1.373933 21.352602 -24.355988 -15.030176 66.160793 -57.434249 -40.401476 12.480313 2.377874 -15.052898 -5.610949 -0.280581 -0.582069 5.124543 -10.982388 4.454356 12.475373 -74.685762 -28.546057 -8.125442 1.621727 15.204233 11.104765 -62.594561 0.706187 -107.209229 81.638642 -106.405170 0.270483 -2.930124 10.892802 0.006957 -0.010054 0.003088 4.477023 -60.070735 -7.326127 106.405381 80.672944 110.195304 8.339918 -7.778044 -5.609491 0.003792 -0.003760 0.001683
-0.271478 125.896505 -6.294680 173.757150 -11.762517 0.164184 -1.111221 18.243595 3.598135 -0.184335 2.094128 0.427777 -0.296375 3.462916 0.703999 -1.025068 15.867493 3.139303 -3.244102 9.700970 1.730313 -3.917355 -15.444158 2.637041 6.601822 -3.136563 -1.446979 20.762895 -24.159243 -14.777487 66.636554 -57.284371 -41.521199 12.585482 2.697171 -14.974723 -5.566853 -0.276506 -0.585335 5.195695 -10.881967 4.496468 13.083849 -74.789723 -29.183128 -8.004029 1.379132 15.400126 11.107050 -62.668421 0.693826 -107.107384 81.646137 -106.307893 0.274336 -2.954141 10.877626 0.005858 -0.011544 0.002600 4.454885 -60.152175 -7.328186 106.355888 80.659987 110.130501 8.356416 -7.770214 -5.615730 -0.001406 -0.005739 -0.000624
-0.268920 125.889389 -6.302876 173.747348 -11.677217 0.167785 -1.162328 18.271450 3.583942 -0.189833 2.100368 0.428294 -0.305368 3.472746 0.704640 -1.064820 15.886773 3.132530 -3.036266 9.613183 1.617234 -3.662359 -15.536379 2.463401 6.465541 -3.070678 -1.526892 20.158709 -23.985488 -14.534447 67.117322 -57.183508 -42.607115 12.695130 3.022028 -14.945825 -5.513538 -0.279369 -0.588928 5.281903 -10.780081 4.535120 13.910789 -74.852224 -30.042145 -7.882995 1.149625 15.525087 11.105688 -62.742900 0.685099 -107.006936 81.654489 -106.211669 0.273014 -2.975446 10.856500 0.003845 -0.014312 0.001707 4.441741 -60.236465 -7.321614 106.330222 80.654443 110.088768 8.363635 -7.760635 -5.621223 -0.000830 -0.007500 -0.000368
-0.265709 125.881963 -6.311037 173.741256 -11.588591 0.169326 -1.213708 18.295194 3.574563 -0.195792 2.105851 0.428701 -0.315219 3.481329 0.705100 -1.108687 15.903239 3.124796 -2.855338 9.524888 1.525874 -3.409894 -15.588997 2.279979 6.334172 -3.007870 -1.608476 19.544527 -23.819022 -14.300617 67.581591 -57.133791 -43.639534 12.765363 3.237042 -14.983794 -5.446125 -0.287928 -0.595837 5.373058 -10.681907 4.571030 14.877078 -74.879813 -31.039580 -7.768451 0.929375 15.594889 11.050699 -62.810814 0.707182 -106.837408 81.680598 -106.048189 0.266378 -2.996397 10.809435 0.004199 -0.013107 0.001863 4.421025 -60.326106 -7.311031 106.307942 80.647792 110.049999 8.370211 -7.746920 -5.626049 -0.002050 -0.007614 -0.000910
-0.260872 125.874142 -6.318414 173.748022 -11.493606 0.160953 -1.270279 18.310402 3.576280 -0.202698 2.110637 0.428990 -0.326609 3.488881 0.705352 -1.159956 15.917296 3.115803 -2.687668 9.476075 1.430094 -3.203477 -15.639693 2.135208 6.215814 -2.954236 -1.687718 18.919373 -23.648675 -14.076086 68.014858 -57.148418 -44.615136 12.823777 3.268600 -15.096174 -5.361418 -0.296136 -0.607157 5.461952 -10.595959 4.602199 15.879320 -74.887670 -32.068649 -7.657451 0.708405 15.632728 10.995834 -62.878715 0.712958 -106.694540 81.729843 -105.861156 0.225080 -3.037843 10.702059 0.023478 -0.013626 0.010420 4.374487 -60.425555 -7.287808 106.269676 80.650464 110.011757 8.364426 -7.721750 -5.638488 -0.002396 -0.009345 -0.001063
-0.257366 125.866718 -6.328830 173.765880 -11.412818 0.161364 -1.333442 18.337415 3.568496 -0.209963 2.115484 0.429233 -0.338569 3.496575 0.705504 -1.213719 15.931558 3.106276 -2.543633 9.459453 1.337663 -3.056349 -15.696482 2.040002 6.109378 -2.915691 -1.762417 18.274725 -23.474920 -13.856766 68.448028 -57.244045 -45.549224 12.880853 3.221469 -15.268158 -5.269732 -0.302691 -0.618204 5.544851 -10.528497 4.628442 16.818823 -74.895397 -33.033087 -7.539379 0.465273 15.673481 10.861815 -62.903225 0.748009 -106.414791 81.801413 -105.599077 0.237804 -3.072975 10.654034 0.006901 0.008416 0.003064 4.354133 -60.508393 -7.294907 106.260648 80.647680 109.996954 8.370052 -7.702462 -5.648541 -0.004176 -0.008074 -0.001853
-0.254379 125.859094 -6.338782 173.787532 -11.328299 0.165303 -1.376579 18.306458 3.559629 -0.233439 2.173575 0.432344 -0.349992 3.504337 0.705482 -1.264862 15.945985 3.096370 -2.437455 9.379400 1.295564 -2.962156 -15.679418 1.953922 6.006200 -2.891880 -1.834000 17.614268 -23.299315 -13.636383 68.885565 -57.415190 -46.434330 12.872790 3.176322 -15.501281 -5.182702 -0.305566 -0.626130 5.621886 -10.481642 4.655674 17.627863 -74.920917 -33.869068 -7.414048 0.177058 15.742091 10.759999 -62.948913 0.770135 -106.237292 81.841735 -105.425854 0.232447 -3.118647 10.584842 0.007429 0.011610 0.003298 4.337919 -60.595614 -7.311323 106.247697 80.653846 109.986919 8.378964 -7.665627 -5.675132 -0.003428 -0.004263 -0.001522
-0.252025 125.851219 -6.347483 173.815497 -11.236887 0.172318 -1.435421 18.349434 3.545402 -0.231768 2.151252 0.430590 -0.360498 3.511543 0.705072 -1.312035 15.959467 3.085276 -2.400015 9.378314 1.265426 -2.909463 -15.731128 1.927390 5.901854 -2.876134 -1.903724 16.956353 -23.121614 -13.415318 69.343078 -57.637807 -47.300012 12.838441 3.123679 -15.790418 -5.103921 -0.301302 -0.633384 5.694254 -10.451433 4.693155 18.286396 -74.982510 -34.556524 -7.289355 -0.154419 15.845604 10.630747 -62.996215 0.808085 -106.042987 81.874731 -105.244585 0.223865 -3.208725 10.495387 0.007426 0.003891 0.003297 4.255295 -60.691284 -7.275186 106.256347 80.666701 109.964339 8.394828 -7.642842 -5.694122 -0.000748 -0.005413 -0.000332
